<svg xmlns="http://www.w3.org/2000/svg" xmlns:xlink="http://www.w3.org/1999/xlink"><symbol viewBox="0 0 1792 1792" id="angle-double-left" xmlns="http://www.w3.org/2000/svg"><path d="M1011 1376q0 13-10 23l-50 50q-10 10-23 10t-23-10L439 983q-10-10-10-23t10-23l466-466q10-10 23-10t23 10l50 50q10 10 10 23t-10 23L608 960l393 393q10 10 10 23zm384 0q0 13-10 23l-50 50q-10 10-23 10t-23-10L823 983q-10-10-10-23t10-23l466-466q10-10 23-10t23 10l50 50q10 10 10 23t-10 23L992 960l393 393q10 10 10 23z"/></symbol><symbol viewBox="0 0 1792 1792" id="angle-double-right" xmlns="http://www.w3.org/2000/svg"><path d="M979 960q0 13-10 23l-466 466q-10 10-23 10t-23-10l-50-50q-10-10-10-23t10-23l393-393-393-393q-10-10-10-23t10-23l50-50q10-10 23-10t23 10l466 466q10 10 10 23zm384 0q0 13-10 23l-466 466q-10 10-23 10t-23-10l-50-50q-10-10-10-23t10-23l393-393-393-393q-10-10-10-23t10-23l50-50q10-10 23-10t23 10l466 466q10 10 10 23z"/></symbol><symbol viewBox="0 0 1792 1792" id="bookmark" xmlns="http://www.w3.org/2000/svg"><path d="M1408 256H384v1242l423-406 89-85 89 85 423 406V256zm12-128q23 0 44 9 33 13 52.5 41t19.5 62v1289q0 34-19.5 62t-52.5 41q-19 8-44 8-48 0-83-32l-441-424-441 424q-36 33-83 33-23 0-44-9-33-13-52.5-41t-19.5-62V240q0-34 19.5-62t52.5-41q21-9 44-9h1048z"/></symbol><symbol viewBox="0 0 1792 1792" id="comments" xmlns="http://www.w3.org/2000/svg"><path d="M1408 768q0 139-94 257t-256.5 186.5T704 1280q-86 0-176-16-124 88-278 128-36 9-86 16h-3q-11 0-20.5-8t-11.5-21q-1-3-1-6.5t.5-6.5 2-6l2.5-5 3.5-5.5 4-5 4.5-5 4-4.5q5-6 23-25t26-29.5 22.5-29 25-38.5 20.5-44q-124-72-195-177T0 768q0-139 94-257t256.5-186.5T704 256t353.5 68.5T1314 511t94 257zm384 256q0 120-71 224.5T1526 1425q10 24 20.5 44t25 38.5 22.5 29 26 29.5 23 25q1 1 4 4.5t4.5 5 4 5 3.5 5.5l2.5 5 2 6 .5 6.5-1 6.5q-3 14-13 22t-22 7q-50-7-86-16-154-40-278-128-90 16-176 16-271 0-472-132 58 4 88 4 161 0 309-45t264-129q125-92 192-212t67-254q0-77-23-152 129 71 204 178t75 230z"/></symbol><symbol viewBox="0 0 1792 1792" id="facebook" xmlns="http://www.w3.org/2000/svg"><path d="M1579 128q35 0 60 25t25 60v1366q0 35-25 60t-60 25h-391v-595h199l30-232h-229V689q0-56 23.5-84t91.5-28l122-1V369q-63-9-178-9-136 0-217.5 80T948 666v171H748v232h200v595H213q-35 0-60-25t-25-60V213q0-35 25-60t60-25h1366z"/></symbol><symbol viewBox="0 0 1792 1792" id="flickr" xmlns="http://www.w3.org/2000/svg"><path d="M1376 128q119 0 203.5 84.5T1664 416v960q0 119-84.5 203.5T1376 1664H416q-119 0-203.5-84.5T128 1376V416q0-119 84.5-203.5T416 128h960zM826 896q0-88-62-150t-150-62-150 62-62 150 62 150 150 62 150-62 62-150zm564 0q0-88-62-150t-150-62-150 62-62 150 62 150 150 62 150-62 62-150z"/></symbol><symbol viewBox="0 0 1792 1792" id="github" xmlns="http://www.w3.org/2000/svg"><path d="M1664 896q0 251-146.5 451.5T1139 1625q-27 5-39.5-7t-12.5-30v-211q0-97-52-142 57-6 102.5-18t94-39 81-66.5 53-105T1386 856q0-121-79-206 37-91-8-204-28-9-81 11t-92 44l-38 24q-93-26-192-26t-192 26q-16-11-42.5-27T578 459.5 492 446q-44 113-7 204-79 85-79 206 0 85 20.5 150t52.5 105 80.5 67 94 39 102.5 18q-40 36-49 103-21 10-45 15t-57 5-65.5-21.5T484 1274q-19-32-48.5-52t-49.5-24l-20-3q-21 0-29 4.5t-5 11.5 9 14 13 12l7 5q22 10 43.5 38t31.5 51l10 23q13 38 44 61.5t67 30 69.5 7 55.5-3.5l23-4q0 38 .5 89t.5 54q0 18-13 30t-40 7q-232-77-378.5-277.5T128 896q0-209 103-385.5T510.5 231 896 128t385.5 103T1561 510.5 1664 896z"/></symbol><symbol viewBox="0 0 1792 1792" id="google-plus" xmlns="http://www.w3.org/2000/svg"><path d="M1181 913q0 208-87 370.5t-248 254-369 91.5q-149 0-285-58t-234-156-156-234-58-285 58-285 156-234 234-156 285-58q286 0 491 192L769 546Q652 433 477 433q-123 0-227.5 62T84 663.5 23 896t61 232.5T249.5 1297t227.5 62q83 0 152.5-23t114.5-57.5 78.5-78.5 49-83 21.5-74H477V791h692q12 63 12 122zm867-122v210h-209v209h-210v-209h-209V791h209V582h210v209h209z"/></symbol><symbol viewBox="0 0 744.094 1052.362" id="indieweb" xmlns="http://www.w3.org/2000/svg"><defs><clipPath id="ib"><use height="1052.362" width="744.094" xlink:href="#ia" overflow="visible"/></clipPath></defs><g transform="matrix(8.02177 0 0 8.02177 -23.783 83.431)"><defs><path id="ia" d="M-2.518 35.699H148v71.534H-2.518z"/></defs><path clip-path="url(#ib)" fill="#666" d="M7.817 89.555h1.315v7.483H7.817zM20.453 94.12v-4.565h1.315v7.516l-.075.033-4.725-4.598v4.532h-1.315v-7.515l.075-.032zM27.433 97.038v-7.483h2.619c2.854 0 3.699 2.171 3.699 3.73 0 1.604-.845 3.753-3.699 3.753h-2.619zm2.618-1.176c2.063 0 2.373-1.914 2.373-2.577 0-.651-.31-2.564-2.373-2.564h-1.326v5.142h1.326zM39.414 89.555h1.315v7.483h-1.315zM48.34 92.763h2.897v1.175H48.34v1.924h3.7v1.176h-5.003v-7.483h5.003v1.176h-3.7z"/><path clip-path="url(#ib)" fill="#444" d="M65.08 94.312l2.02-4.757h1.455l-3.422 7.549h-.096l-2.075-4.652-2.061 4.652h-.097l-3.422-7.549h1.454l2.021 4.757 2.053-4.896h.107zM74.347 92.763h2.897v1.175h-2.897v1.924h3.698v1.176h-5.003v-7.483h5.003v1.176h-3.698zM88.66 93.285c.608.257.919.995.919 1.583 0 .898-.62 2.17-2.64 2.17h-2.801v-7.483h2.801c2.02 0 2.64 1.272 2.64 2.181 0 .609-.311 1.293-.919 1.549m-1.572-.533c.982-.032 1.155-.716 1.155-1.017 0-.245-.173-1.015-1.197-1.015h-1.615v2.031h1.657zm-.042 3.11c1.024 0 1.197-.748 1.197-.994 0-.342-.173-.898-1.155-.93h-1.657v1.924h1.615z"/></g><path fill="red" d="M37.973 236.632H194.36v95.143H37.973zM37.973 361.742H194.36V768.35c-26.064 0-88.295-.273-114.36-.273l-41.429-53.571z"/><path d="M225.638 768.35h41.703l83.407-175.155v-262.73h-41.704l-83.406 175.153z" fill="#ff5c00"/><path d="M538.412 236.632H694.8l.2 475.73-55 56.429-101.588-.442z" fill="#ffb100"/><path d="M507.135 768.35h-41.703l-83.407-175.155v-262.73h41.703l83.407 175.153z" fill="#ff5c00"/></symbol><symbol viewBox="0 0 1792 1792" id="instagram" xmlns="http://www.w3.org/2000/svg"><path d="M1490 1426V778h-135q20 63 20 131 0 126-64 232.5T1137 1310t-240 62q-197 0-337-135.5T420 909q0-68 20-131H299v648q0 26 17.5 43.5T360 1487h1069q25 0 43-17.5t18-43.5zm-284-533q0-124-90.5-211.5T897 594q-127 0-217.5 87.5T589 893t90.5 211.5T897 1192q128 0 218.5-87.5T1206 893zm284-360V368q0-28-20-48.5t-49-20.5h-174q-29 0-49 20.5t-20 48.5v165q0 29 20 49t49 20h174q29 0 49-20t20-49zm174-208v1142q0 81-58 139t-139 58H325q-81 0-139-58t-58-139V325q0-81 58-139t139-58h1142q81 0 139 58t58 139z"/></symbol><symbol viewBox="0 0 1792 1792" id="like" xmlns="http://www.w3.org/2000/svg"><path d="M896 1664q-26 0-44-18l-624-602q-10-8-27.5-26T145 952.5 77 855 23.5 734 0 596q0-220 127-344t351-124q62 0 126.5 21.5t120 58T820 276t76 68q36-36 76-68t95.5-68.5 120-58T1314 128q224 0 351 124t127 344q0 221-229 450l-623 600q-18 18-44 18z"/></symbol><symbol viewBox="0 0 1792 1792" id="link" xmlns="http://www.w3.org/2000/svg"><path d="M1520 1216q0-40-28-68l-208-208q-28-28-68-28-42 0-72 32 3 3 19 18.5t21.5 21.5 15 19 13 25.5 3.5 27.5q0 40-28 68t-68 28q-15 0-27.5-3.5t-25.5-13-19-15-21.5-21.5-18.5-19q-33 31-33 73 0 40 28 68l206 207q27 27 68 27 40 0 68-26l147-146q28-28 28-67zM817 511q0-40-28-68L583 236q-28-28-68-28-39 0-68 27L300 381q-28 28-28 67 0 40 28 68l208 208q27 27 68 27 42 0 72-31-3-3-19-18.5T607.5 680t-15-19-13-25.5T576 608q0-40 28-68t68-28q15 0 27.5 3.5t25.5 13 19 15 21.5 21.5 18.5 19q33-31 33-73zm895 705q0 120-85 203l-147 146q-83 83-203 83-121 0-204-85l-206-207q-83-83-83-203 0-123 88-209l-88-88q-86 88-208 88-120 0-204-84L164 652q-84-84-84-204t85-203L312 99q83-83 203-83 121 0 204 85l206 207q83 83 83 203 0 123-88 209l88 88q86-88 208-88 120 0 204 84l208 208q84 84 84 204z"/></symbol><symbol viewBox="0 0 1792 1792" id="mail" xmlns="http://www.w3.org/2000/svg"><path d="M1376 128q119 0 203.5 84.5T1664 416v960q0 119-84.5 203.5T1376 1664H416q-119 0-203.5-84.5T128 1376V416q0-119 84.5-203.5T416 128h960zm32 1056V748q-31 35-64 55-34 22-132.5 85T1060 987q-98 69-164 69t-164-69q-47-32-142-92.5T448 802q-12-8-33-27t-31-27v436q0 40 28 68t68 28h832q40 0 68-28t28-68zm0-573q0-41-27.5-70t-68.5-29H480q-40 0-68 28t-28 68q0 37 30.5 76.5T482 749q47 32 137.5 89T749 921q3 2 17 11.5t21 14 21 13 23.5 13T853 982t22.5 7.5T896 992t20.5-2.5T939 982t21.5-9.5 23.5-13 21-13 21-14 17-11.5l267-174q35-23 66.5-62.5T1408 611z"/></symbol><symbol viewBox="0 0 1792 1792" id="map" xmlns="http://www.w3.org/2000/svg"><path d="M512 0q13 0 22.5 9.5T544 32v1472q0 20-17 28L47 1788q-7 4-15 4-13 0-22.5-9.5T0 1760V288q0-20 17-28L497 4q7-4 15-4zm1248 0q13 0 22.5 9.5T1792 32v1472q0 20-17 28l-480 256q-7 4-15 4-13 0-22.5-9.5t-9.5-22.5V288q0-20 17-28L1745 4q7-4 15-4zM640 0q8 0 14 3l512 256q18 10 18 29v1472q0 13-9.5 22.5t-22.5 9.5q-8 0-14-3l-512-256q-18-10-18-29V32q0-13 9.5-22.5T640 0z"/></symbol><symbol viewBox="0 0 1792 1792" id="medium" xmlns="http://www.w3.org/2000/svg"><path d="M597 421v1173q0 25-12.5 42.5T548 1654q-17 0-33-8L50 1413q-21-10-35.5-33.5T0 1333V193q0-20 10-34t29-14q14 0 44 15l511 256q3 3 3 5zm64 101l534 866-534-266V522zm1131 18v1054q0 25-14 40.5t-38 15.5-47-13l-441-220zm-3-120q0 3-256.5 419.5T1232 1327L842 693l324-527q17-28 52-28 14 0 26 6l541 270q4 2 4 6z"/></symbol><symbol viewBox="0 0 24 24" id="microblog" xmlns="http://www.w3.org/2000/svg"><path d="M21.4 17.7c-2 2.6-1 4.8-.3 5.9.3.4-.1.4-.3.4a6 6 0 0 1-4-2.7c-.2-.1-.3-.2-.5-.1-1.4.4-2.8.7-4.3.6C5.4 21.8 0 17 0 11S5.4 0 12 0s12 4.9 12 11c0 2.5-1 4.8-2.6 6.7zM12 14l3.2 2.2a.4.4 0 0 0 .6-.4L14.6 12l3.1-2.4a.4.4 0 0 0-.2-.6h-3.9l-1.3-3.8a.4.4 0 0 0-.6 0L10.4 9h-4a.4.4 0 0 0-.1.7l3 2.4-1 3.7a.4.4 0 0 0 .5.4z"/></symbol><symbol viewBox="0 0 2048 1792" id="photo" xmlns="http://www.w3.org/2000/svg"><path d="M704 576q0 80-56 136t-136 56-136-56-56-136 56-136 136-56 136 56 56 136zm1024 384v448H320v-192l320-320 160 160 512-512zm96-704H224q-13 0-22.5 9.5T192 288v1216q0 13 9.5 22.5t22.5 9.5h1600q13 0 22.5-9.5t9.5-22.5V288q0-13-9.5-22.5T1824 256zm160 32v1216q0 66-47 113t-113 47H224q-66 0-113-47t-47-113V288q0-66 47-113t113-47h1600q66 0 113 47t47 113z"/></symbol><symbol viewBox="0 0 1792 1792" id="reply" xmlns="http://www.w3.org/2000/svg"><path d="M1792 1120q0 166-127 451-3 7-10.5 24t-13.5 30-13 22q-12 17-28 17-15 0-23.5-10t-8.5-25q0-9 2.5-26.5t2.5-23.5q5-68 5-123 0-101-17.5-181t-48.5-138.5-80-101-105.5-69.5-133-42.5-154-21.5-175.5-6H640v256q0 26-19 45t-45 19-45-19L19 685Q0 666 0 640t19-45L531 83q19-19 45-19t45 19 19 45v256h224q713 0 875 403 53 134 53 333z"/></symbol><symbol viewBox="0 0 2048 1792" id="repost" xmlns="http://www.w3.org/2000/svg"><path d="M1344 1504q0 13-9.5 22.5t-22.5 9.5H352q-8 0-13.5-2t-9-7-5.5-8-3-11.5-1-11.5V896H128q-26 0-45-19t-19-45q0-24 15-41l320-384q19-22 49-22t49 22l320 384q15 17 15 41 0 26-19 45t-45 19H576v384h576q16 0 25 11l160 192q7 10 7 21zm640-416q0 24-15 41l-320 384q-20 23-49 23t-49-23l-320-384q-15-17-15-41 0-26 19-45t45-19h192V640H896q-16 0-25-12L711 436q-7-9-7-20 0-13 9.5-22.5T736 384h960q8 0 13.5 2t9 7 5.5 8 3 11.5 1 11.5v600h192q26 0 45 19t19 45z"/></symbol><symbol viewBox="0 0 1792 1792" id="rss" xmlns="http://www.w3.org/2000/svg"><path d="M576 1344q0 80-56 136t-136 56-136-56-56-136 56-136 136-56 136 56 56 136zm512 123q2 28-17 48-18 21-47 21H889q-25 0-43-16.5t-20-41.5q-22-229-184.5-391.5T250 902q-25-2-41.5-20T192 839V704q0-29 21-47 17-17 43-17h5q160 13 306 80.5T826 902q114 113 181.5 259t80.5 306zm512 2q2 27-18 47-18 20-46 20h-143q-26 0-44.5-17.5T1329 1476q-12-215-101-408.5t-231.5-336-336-231.5T252 398q-25-1-42.5-19.5T192 335V192q0-28 20-46 18-18 44-18h3q262 13 501.5 120T1186 542q187 186 294 425.5t120 501.5z"/></symbol><symbol viewBox="0 0 1792 1792" id="tag" xmlns="http://www.w3.org/2000/svg"><path d="M576 448q0-53-37.5-90.5T448 320t-90.5 37.5T320 448t37.5 90.5T448 576t90.5-37.5T576 448zm1067 576q0 53-37 90l-491 492q-39 37-91 37-53 0-90-37L219 890q-38-37-64.5-101T128 672V256q0-52 38-90t90-38h416q53 0 117 26.5T891 219l715 714q37 39 37 91z"/></symbol><symbol viewBox="0 0 1792 1792" id="tags" xmlns="http://www.w3.org/2000/svg"><path d="M384 448q0-53-37.5-90.5T256 320t-90.5 37.5T128 448t37.5 90.5T256 576t90.5-37.5T384 448zm1067 576q0 53-37 90l-491 492q-39 37-91 37-53 0-90-37L27 890q-38-37-64.5-101T-64 672V256q0-52 38-90t90-38h416q53 0 117 26.5T699 219l715 714q37 39 37 91zm384 0q0 53-37 90l-491 492q-39 37-91 37-36 0-59-14t-53-45l470-470q37-37 37-90 0-52-37-91L859 219q-38-38-102-64.5T640 128h224q53 0 117 26.5t102 64.5l715 714q37 39 37 91z"/></symbol><symbol viewBox="0 0 1792 1792" id="twitter" xmlns="http://www.w3.org/2000/svg"><path d="M1684 408q-67 98-162 167 1 14 1 42 0 130-38 259.5T1369.5 1125 1185 1335.5t-258 146-323 54.5q-271 0-496-145 35 4 78 4 225 0 401-138-105-2-188-64.5T285 1033q33 5 61 5 43 0 85-11-112-23-185.5-111.5T172 710v-4q68 38 146 41-66-44-105-115t-39-154q0-88 44-163 121 149 294.5 238.5T884 653q-8-38-8-74 0-134 94.5-228.5T1199 256q140 0 236 102 109-21 205-78-37 115-142 178 93-10 186-50z"/></symbol></svg>