<svg version="1" xmlns="http://www.w3.org/2000/svg" width="1866.667" height="1866.667" viewBox="0 0 1400.000000 1400.000000"><path d="M100 148.9V198l2.3.9c1.2.4 9 1.1 17.2 1.5 14.8.7 44.8 4.2 59.5 7 34.2 6.5 71.4 18.9 103 34.4 72 35.2 133.1 90.7 174.4 158.1 37.6 61.5 57.4 125.2 61.7 198 .6 10.8 1.6 20.2 2.1 20.8.8 1 12 1.3 49.6 1.3h48.5l-.6-20.8c-1.8-59.4-13.5-114.3-37.2-174.7-10.2-26.1-33.9-70.7-50.6-95.2-40.6-59.7-91.7-109.5-152.4-148.5-5.5-3.6-12.7-8-16-9.8-3.3-1.8-7.6-4.3-9.5-5.5-4.1-2.5-37.3-19.1-44.5-22.2-61.5-26.6-121.6-40.1-190.7-42.9l-16.8-.7v49.2zM100 283.1c0 .5.5.7 1 .4.6-.3 1-.8 1-1.1 0-.2-.4-.4-1-.4-.5 0-1 .5-1 1.1z"/><path d="M102.6 284.1l-2.6 2v46.3c0 42.8.1 46.4 1.8 47.8 1.2 1.1 5 1.8 12.2 2.2 78 5.1 147.7 47.2 188.4 113.9 12.2 20 21 40.7 27 63.8 4 15.2 7.6 38.1 7.6 48.2 0 4.6.5 7.6 1.6 9.3l1.7 2.4h48.3c31.7-.1 48.4-.5 48.4-1.1 0-.6-.4-.7-1-.4-.5.3-1 .2-1-.4 0-.5.5-1.1 1.2-1.3 1.3-.5-.2-26.2-2.8-44.8-5.3-39-19.9-82.5-39.1-116.5-16.5-29.1-31.9-49.2-57.3-74.5-28.3-28.4-51.5-45.3-85.5-62.5-40.3-20.4-79-31.3-124.5-35-22.1-1.9-21.2-1.9-24.4.6zM146 499.6c-30.8 8-50.8 39.6-44.6 70.3 2.7 13 7.6 22.2 17.1 31.6 9.3 9.3 18.5 14.4 30.8 16.9 9.5 2 14.6 2 23.9.1 34.2-7.2 55.4-41.2 46.8-75-2.7-10.5-8-19.6-15.9-27.6-12.4-12.4-26-18-43.5-17.8-5 0-11.6.7-14.6 1.5zM517.6 1063.9c-5.3 7.7-9.6 14.2-9.6 14.5 0 .3 4.3.6 9.5.6h9.5l14.8-13.7c8.1-7.5 14.9-14 15-14.5.2-.4-6.4-.8-14.7-.8h-15l-9.5 13.9zM101 1123.5v71.5h31v-56.1l20.3.3c18.5.3 20.5.5 24.3 2.5 7.5 4 9.8 9.8 11.9 29.7.9 7.8 2.1 16.2 2.7 18.8l1.2 4.8h15.4c14.3 0 15.4-.1 14.7-1.8-2.2-4.9-3.5-12.7-4.5-25-1.1-14.9-3-23.8-6.1-28.8-2.5-4.2-7.6-8.6-11.8-10.3l-3.2-1.4 4.3-2.4c13-7.4 18.6-18.8 17.6-36.4-1-19.3-14.1-32.9-34.3-35.9-3.8-.5-24.2-1-45.2-1H101v71.5zm77.4-44.5c7.8 3.9 9.1 6.4 9.1 17.5 0 7.9-.3 9.8-2.1 12.1-5.5 7.4-9.2 8.3-34.1 8.4H132v-19.8c0-10.9.2-20.1.4-20.3.3-.2 9.6-.4 20.8-.4 19.7 0 20.5.1 25.2 2.5zM277 1090.4c-17 3.7-32.1 17.9-37.6 35.3-2.2 7.1-2.9 20.6-1.5 29 .7 4 2.8 10.5 4.7 14.5 9.1 19 24 27.8 46.9 27.8 24 0 38.6-9.3 46.8-29.8l1.7-4.2H313.3l-2.4 3.7c-1.5 2.3-4.5 4.8-7.8 6.5-4.5 2.4-6.5 2.8-13 2.8-14.7-.1-22.5-6.8-24.6-21.3l-.6-4.7h75.4l-.6-8.4c-1.9-27.1-15.2-45.3-37.2-51.1-6.9-1.8-17.7-1.8-25.5-.1zm19.5 20.7c5.1 1.4 10.8 7.3 12.9 13.5 2.7 7.9 4.2 7.4-21.5 7.4h-23.1l.7-3.3c3.1-13.9 16.5-21.6 31-17.6zM403.5 1091.1c-7.2 2.5-12.2 6-16.1 11.2l-2.9 3.9-.3-7.1-.3-7.1H357v103h27.9l.3-33.3c.5-37.1.9-40 7.4-45.6 9-8 24.6-6.4 29.6 3.1 2.3 4.2 2.3 4.9 2.6 40l.3 35.8h29.1l-.4-38.3c-.4-31.5-.8-39.2-2.1-43.9-3.5-12.3-10.5-19.2-22.4-22.3-8.1-2.1-18.5-1.9-25.8.6zM510.5 1090.4c-13.3 3.2-26.6 13.5-32.9 25.6-11.3 21.5-7.6 50.9 8.4 67 10 10 20.6 14 37.5 14 24.1 0 38.6-9.2 46.8-29.8l1.7-4.2H547.3l-2.4 3.7c-1.5 2.3-4.5 4.8-7.8 6.5-10.9 5.7-27.2 2.9-33-5.7-2.1-3.1-5-12.6-5.1-16.3 0-.9 8.2-1.2 37.6-1.2h37.7l-.6-8.4c-1.9-27.5-16.3-46.8-38.5-51.5-6.7-1.4-18.2-1.3-24.7.3zm20 20.7c5.1 1.4 10.8 7.3 12.9 13.5 2.7 7.9 4.2 7.4-21.5 7.4h-23.1l.7-3.3c3.1-13.9 16.5-21.6 31-17.6zM98 1260.1v34.1l18.8-.4c17-.3 19.2-.6 24-2.7 6.5-2.9 12-9 14.7-16.2 1.5-4.1 2-7.9 2-16 0-10.1-.2-10.9-3.5-17.5-2.7-5.3-4.6-7.6-8.3-10.1-7-4.7-10.3-5.3-29.9-5.3H98v34.1zm33.7-20.6c8.1 3.4 11.2 9.2 11.3 20.5 0 9-2.6 15.2-7.9 18.7-2.9 2-4.7 2.3-12.7 2.3H113v-43h7.5c4.5 0 9 .6 11.2 1.5zM288 1260v34h18.3c19.7 0 24.9-.9 31.3-5.2 4.6-3.1 6.9-8.1 6.9-14.8-.1-6.8-2.5-11.5-7.8-14.9l-3.7-2.5 3.4-2.7c5.7-4.8 6.7-14.5 2.1-21.5-3.5-5.4-8-6.4-30.2-6.4H288v34zm36.9-20.6c3.2 2.9 2.9 8.8-.5 11.5-2.3 1.8-4.1 2.1-12 2.1H303v-16.2l9.9.4c8 .2 10.3.7 12 2.2zm.4 25.1c2.3 1 4.7 5.7 4.7 9.2 0 1.5-.9 3.9-2 5.3-1.8 2.4-2.5 2.5-13.4 2.8l-11.6.4v-19.5l10.3.5c5.6.3 11 .9 12 1.3zM354 1260v34h13v-68h-13v34zM181.7 1244.6c-19.6 6-22.7 36.7-4.8 47.2 4 2.4 5.7 2.7 13.1 2.7 10.6 0 15.7-2.3 20.1-9.2 1.6-2.6 2.9-5.1 2.9-5.5 0-1.4-11.8-.9-12.7.5-2.7 4.5-10.8 6.1-16.3 3.2-3.4-1.7-4.6-3.7-5.1-8l-.4-3 17.8-.3 17.7-.2v-3.3c0-10.8-7.3-21.5-16.3-24.2-6.2-1.8-9.7-1.8-16 .1zm12.3 9.5c2.3.9 3.7 2.3 5.1 5.3l1.8 4.1-5.4.3c-3 .2-8.1.2-11.4 0l-6-.3 1.8-4.1c2.6-5.7 7.5-7.5 14.1-5.3zM245.5 1244.5c-2.2.8-5.5 3.1-7.2 5.1l-3.3 3.7v-9.4l-6.2.3-6.3.3-.3 24.7-.2 24.8h14v-14.1c0-19.7 2.4-23.9 13.5-23.9h4.6l-.3-6.3c-.3-7.1-1.3-7.7-8.3-5.2zM393.2 1244.9c-6.1 2.1-10.4 5.8-13.5 11.6-1.8 3.2-2.2 5.7-2.2 13.1 0 8.3.2 9.4 3 14 4.3 6.9 10.5 10.5 19.3 11.2 15.7 1.1 26.6-7.8 27.9-22.8 1.9-20.2-15.3-33.7-34.5-27.1zm17.2 12.1c2.7 2.6 3.1 3.8 3.4 9.9.5 8.8-1 13.7-5.2 16.2-7.8 4.7-16.6.2-18-9.3-1.3-9 1.4-17 6.7-19.4 4.5-2 9.5-1 13.1 2.6zM450.5 1244.2c-4.9 1.8-8.3 4.7-11.2 9.6-2.5 4.2-2.8 5.6-2.8 14.2 0 11 1.7 15.4 7.8 20.4 6.5 5.2 19.2 4.9 24.7-.5l3-3.1v5.5c0 4-.6 6.3-2.2 8.7-4 5.8-12.7 6.3-17.2.9-2.3-2.7-3-2.9-9-2.9h-6.5l.9 3.2c2.2 7.6 10.4 12.1 22 12.2 6 0 8.7-.6 13.1-2.6 10.9-5 12.1-9 11.7-41.3l-.3-24-6.2-.3-6.3-.3v7.5l-1.6-2.3c-3.5-5-13.1-7.3-19.9-4.9zm16.8 11.5c6.3 5.6 6 18.9-.5 24.3-2.5 2.1-8.8 2.6-11.9 1-6-3.3-7.3-18.4-2.1-24.4 3.6-4 10.5-4.4 14.5-.9z"/></svg>